<?xml version="1.0" standalone="no"?>
<!DOCTYPE svg PUBLIC "-//W3C//DTD SVG 1.0//EN" "http://www.w3.org/TR/2001/REC-SVG-20010904/DTD/svg10.dtd">
<svg xmlns="http://www.w3.org/2000/svg" xmlns:xlink="http://www.w3.org/1999/xlink" id="body_1" width="205" height="154">

<g transform="matrix(0.94907415 0 0 0.94907415 -0 42.833336)">
    <path d="M58.47 22.46L59.16 22.46L59.16 49.53L58.47 49.53z" stroke="none" fill="#FFFFFF" fill-rule="nonzero" />
    <path d="M46.8 31.59L43.83 31.59L43.65 31.59L43.58 31.75L41.42 36.24L39.27 31.75L39.19 31.59L39.02 31.59L36.15 31.59L35.88 31.59L35.88 31.87L35.88 33.4L35.88 33.67L36.15 33.67L36.64 33.67L36.64 40.09L36.11 40.09L35.84 40.09L35.84 40.36L35.84 41.89L35.84 42.16L36.11 42.16L39.33 42.16L39.6 42.16L39.6 41.89L39.6 40.36L39.6 40.09L39.33 40.09L38.77 40.09L38.77 35.54L41.18 40.5L41.42 41.01L41.67 40.5L44.11 35.52L44.11 40.09L43.57 40.09L43.3 40.09L43.3 40.36L43.3 41.89L43.3 42.16L43.57 42.16L46.8 42.16L47.07 42.16L47.07 41.89L47.07 40.36L47.07 40.09L46.8 40.09L46.24 40.09L46.24 33.67L46.8 33.67L47.07 33.67L47.07 33.4L47.07 31.87L47.07 31.59L46.8 31.59L46.8 31.59" stroke="none" fill="#FFFFFF" fill-rule="nonzero" />
    <path d="M28.08 40.08L27.22 40.08L24.43 33.63L25 33.63L25 31.56L20.5 31.56L20.5 33.63L21.11 33.63L18.32 40.08L17.16 40.08L17.16 42.160004L21.23 42.160004L21.23 40.08L20.63 40.08L21.1 39L24.45 39L24.91 40.07L24.289999 40.07L24.289999 42.15L28.349998 42.15L28.349998 40.08L28.08 40.08zM23.55 36.93L22 36.93L22.78 35.13z" stroke="none" fill="#FFFFFF" fill-rule="nonzero" />
    <path d="M43.38 23.54L20.77 23.54L20.46 23.54L20.46 23.85L20.46 29.89L20.46 30.2L20.77 30.2L24.68 30.2L24.99 30.2L24.99 29.89L24.99 27.65L29.81 27.65L29.81 43.57L27.57 43.57L27.26 43.57L27.26 43.88L27.26 47.78L27.26 48.1L27.57 48.1L36.59 48.1L36.9 48.1L36.9 47.78L36.9 43.88L36.9 43.57L36.59 43.57L34.34 43.57L34.34 27.65L39.14 27.65L39.14 29.86L39.14 30.18L39.45 30.18L43.38 30.18L43.7 30.18L43.7 29.86L43.7 23.85L43.7 23.54L43.38 23.54L43.38 23.54" stroke="none" fill="#FFFFFF" fill-rule="nonzero" />
    <path d="M35.02 45.42L35.97 44.44L35.97 47.14L35.02 46.22L35.02 45.42L35.02 45.42" stroke="none" fill="#B1B3B6" fill-rule="nonzero" />
    <path d="M33.42 44.51L32.47 45.45L32.47 25.77L33.42 26.73L33.42 44.51L33.42 44.51" stroke="none" fill="#B1B3B6" fill-rule="nonzero" />
    <path d="M22.38 25.43L21.39 24.47L42.29 24.47L41.05 25.43L22.38 25.43L22.38 25.43" stroke="none" fill="#B1B3B6" fill-rule="nonzero" />
    <path d="M42.8 29.3L41.84 28.39L41.84 25.96L42.8 24.98L42.8 29.3L42.8 29.3" stroke="none" fill="#B1B3B6" fill-rule="nonzero" />
    <path d="M84.18 27.6L83.18 27.6C 83.15634 26.895418 82.95697 26.207918 82.6 25.6C 82.3677 25.231453 82.01401 24.955578 81.6 24.82C 81.21206 24.715792 80.81165 24.665321 80.409996 24.67L80.409996 24.67L78.63 24.67L78.63 35.18C 78.61459 35.518368 78.65859 35.856815 78.759995 36.18C 78.8752 36.430435 79.08868 36.622204 79.34999 36.71C 79.78766 36.856953 80.24881 36.92138 80.70999 36.899998L80.70999 36.899998L80.70999 37.899998L73.54 37.899998L73.54 36.899998C 74.13358 36.974247 74.73452 36.83992 75.24 36.519997C 75.53169 36.1491 75.66793 35.679413 75.619995 35.209995L75.619995 35.209995L75.619995 24.71L74.1 24.71C 73.59959 24.698782 73.09956 24.745766 72.61 24.849998C 72.19308 24.98007 71.83767 25.25729 71.61 25.63C 71.25775 26.236444 71.08117 26.92893 71.1 27.63L71.1 27.63L70.1 27.63L70.1 23.55L84.18 23.55L84.18 27.6z" stroke="none" fill="#FFFFFF" fill-rule="nonzero" />
    <path d="M98.12 33.14L98 37.84L85.28 37.84L85.28 36.84C 85.873665 36.91595 86.475174 36.781494 86.979996 36.46C 87.2717 36.089104 87.407936 35.619415 87.35999 35.149998L87.35999 35.149998L87.35999 26.149998C 87.37663 25.812284 87.33606 25.474186 87.23999 25.149998C 87.13155 24.899815 86.92566 24.70476 86.66999 24.609997C 86.22257 24.460482 85.75112 24.396038 85.27999 24.419996L85.27999 24.419996L85.27999 23.419996L97.13 23.419996L97.32 27.129997L96.32 27.129997C 96.189316 26.496264 95.93442 25.89469 95.57 25.359997C 95.32531 25.02855 94.970955 24.794674 94.57 24.699997C 94.04213 24.605797 93.50603 24.56559 92.97 24.579996L92.97 24.579996L90.37 24.579996L90.37 29.629997L91.82 29.629997C 92.19788 29.646782 92.57602 29.602892 92.94 29.499998C 93.18049 29.421307 93.37194 29.237213 93.46 28.999998C 93.58266 28.6251 93.65003 28.234327 93.659996 27.839998L93.659996 27.839998L94.659996 27.839998L94.659996 32.589996L93.659996 32.589996C 93.65787 32.19407 93.5868 31.801538 93.45 31.429996C 93.35277 31.195335 93.15992 31.013395 92.92 30.929996C 92.55912 30.82866 92.184525 30.784788 91.81 30.799997L91.81 30.799997L90.37 30.799997L90.37 34.3C 90.37 34.86 90.37 35.3 90.37 35.53C 90.389114 35.76292 90.46836 35.986893 90.600006 36.18C 90.74847 36.37207 90.96172 36.50358 91.200005 36.55C 91.586464 36.64109 91.98313 36.68143 92.380005 36.67L92.380005 36.67L93.53001 36.67C 94.02663 36.67844 94.521835 36.614433 95 36.48C 95.51651 36.301697 95.96648 35.97033 96.29 35.53C 96.78989 34.820774 97.0966 33.99367 97.18 33.129997L97.18 33.129997L98.12 33.14z" stroke="none" fill="#FFFFFF" fill-rule="nonzero" />
    <path d="M128 36.64C 127.74059 36.488197 127.52918 36.266396 127.39 36C 127.24 35.72 127.01 35.19 126.7 34.41L126.7 34.41L122.34 23.29L121.34 23.29L117.21999 34.08C 117.00141 34.684143 116.73386 35.26942 116.41999 35.83C 116.23299 36.173065 115.96095 36.46232 115.62999 36.670002C 115.48811 36.74388 115.33667 36.79773 115.17999 36.83C 114.92669 36.80168 114.67802 36.74119 114.439995 36.65C 114.0592 36.470497 113.71895 36.21531 113.439995 35.9C 112.985886 35.403145 112.5586 34.882397 112.159996 34.34L112.159996 34.34L108.67999 29.79L111.229996 26.86C 111.78999 26.220001 112.229996 25.76 112.49999 25.480001C 112.7916 25.197344 113.12993 24.967283 113.49999 24.800001C 113.939186 24.614218 114.41334 24.525528 114.88999 24.54L114.88999 24.54L114.88999 23.54L109 23.54L109 24.54L109.49 24.54C 109.830475 24.511309 110.172935 24.562677 110.49 24.69C 110.66543 24.792961 110.766464 24.987247 110.75 25.19C 110.75562 25.332119 110.72463 25.4733 110.66 25.6C 110.600006 25.710001 110.46001 25.9 110.26 26.16L110.26 26.16L108 28.79L106 26.220001C 105.712776 25.886484 105.49517 25.498878 105.36 25.080002C 105.33016 24.868376 105.4567 24.665909 105.66 24.600002C 105.954735 24.530521 106.257355 24.50026 106.560005 24.510002L106.560005 24.510002L107.11001 24.510002L107.11001 23.510002L99.310005 23.510002L99.310005 24.510002C 99.752396 24.49346 100.1946 24.54747 100.62 24.670002C 100.92831 24.774809 101.20636 24.953312 101.43 25.190002C 101.66 25.430002 102.04 25.890003 102.56 26.570002L102.56 26.570002L106 31.1L103.46 34.1C 102.922165 34.74875 102.34082 35.36017 101.72 35.93C 101.37183 36.254673 100.964424 36.509308 100.520004 36.68C 100.125854 36.80825 99.71446 36.87569 99.3 36.88L99.3 36.88L99.3 37.88L105.58 37.88L105.58 36.88C 105.24698 36.90042 104.913025 36.90042 104.58 36.88C 104.35186 36.85972 104.133804 36.77665 103.950005 36.64C 103.77276 36.50156 103.67542 36.28443 103.69 36.059998C 103.79878 35.535263 104.07201 35.058865 104.47 34.699997L104.47 34.699997L106.68 32L108.99 35C 109.25218 35.285038 109.44397 35.627514 109.549995 36C 109.57981 36.29229 109.39358 36.56317 109.10999 36.64C 108.78599 36.73848 108.44858 36.785717 108.10999 36.78L108.10999 36.78L107.44999 36.78L107.44999 37.78L119.51999 37.78L119.51999 36.78C 119.133194 36.786907 118.74794 36.729458 118.37999 36.61C 118.04946 36.491 117.84581 36.158516 117.88999 35.81C 117.92964 35.41985 118.0309 35.038445 118.189995 34.68L118.189995 34.68L118.53999 33.75L123.16999 33.75L123.83999 35.44C 123.922646 35.64342 123.96673 35.86045 123.969986 36.079998C 123.99436 36.339165 123.830376 36.578835 123.57999 36.649998C 123.17375 36.744495 122.756805 36.784843 122.33999 36.769997L122.33999 36.769997L122.33999 37.769997L129.06999 37.769997L129.06999 36.769997C 128.70808 36.815636 128.34048 36.770977 128 36.64zM119 32.8L120.88 27.8L122.88 32.8z" stroke="none" fill="#FFFFFF" fill-rule="nonzero" />
    <path d="M139.87 33.58C 139.86244 34.05008 139.7675 34.514652 139.59 34.95C 139.39116 35.45777 139.10709 35.927856 138.75 36.34C 138.35822 36.79619 137.87427 37.16426 137.33 37.420002C 136.7046 37.71222 136.02013 37.855957 135.33 37.84C 134.56789 37.836285 133.815 37.672764 133.12 37.36C 132.39166 37.039192 131.75302 36.54477 131.26 35.920002C 131.05759 36.36911 130.91632 36.843338 130.84 37.33L130.84 37.33L129.89 37.33L129.89 32.55L130.84 32.55C 131.00269 33.221394 131.24086 33.872204 131.55 34.489998C 131.86646 35.083195 132.31044 35.598892 132.85 36C 133.42198 36.441505 134.12761 36.674362 134.85 36.66C 135.467 36.691383 136.07231 36.48364 136.54001 36.079998C 137.17627 35.485012 137.35423 34.54663 136.98001 33.76C 136.83757 33.50304 136.6435 33.27833 136.41 33.1C 136.09764 32.85843 135.76276 32.647457 135.41 32.469997C 134.98001 32.249996 134.49 32.01 133.94 31.759998C 133.20915 31.428852 132.5125 31.026936 131.86 30.559998C 131.39487 30.228493 130.98051 29.830982 130.63 29.379997C 130.37729 29.05151 130.18126 28.683104 130.05 28.289997C 129.94734 27.966452 129.89342 27.629423 129.89 27.289997C 129.89757 26.639666 130.07326 26.00235 130.4 25.439997C 130.75038 24.816704 131.26144 24.298729 131.87999 23.939997C 132.56294 23.544811 133.3411 23.344221 134.12999 23.359997C 134.77928 23.357262 135.42003 23.508028 135.99998 23.799997C 136.59416 24.088375 137.12198 24.497004 137.55 25C 137.70403 24.605783 137.81793 24.197058 137.89 23.78L137.89 23.78L138.89 23.78L138.89 27.68L137.89 27.68C 137.22333 25.560001 136.02667 24.5 134.3 24.5C 133.75986 24.47377 133.22913 24.648308 132.81 24.99C 132.44025 25.302097 132.23389 25.766409 132.25 26.25C 132.24393 26.62961 132.36737 26.99996 132.6 27.3C 132.85268 27.612385 133.16554 27.87083 133.52 28.06C 133.90001 28.269999 134.52 28.58 135.37001 28.98C 136.19754 29.362364 137.00522 29.786228 137.79001 30.25C 138.36227 30.605408 138.86125 31.067043 139.26001 31.61C 139.67249 32.182705 139.88666 32.874424 139.87 33.58z" stroke="none" fill="#FFFFFF" fill-rule="nonzero" />
    <path d="M161.69 37.84L155 37.84L155 36.84C 155.41681 36.85461 155.83372 36.814262 156.24 36.72C 156.4904 36.648838 156.65439 36.40917 156.63 36.15C 156.62651 35.930477 156.58244 35.713493 156.5 35.510002L156.5 35.510002L155.82 33.820004L151.19 33.820004L150.84 34.750004C 150.6837 35.108795 150.5858 35.490284 150.55 35.880005C 150.50583 36.228523 150.70947 36.561012 151.04001 36.680004C 151.40784 36.80001 151.79318 36.857475 152.18001 36.850002L152.18001 36.850002L152.18001 37.850002L147.26001 37.850002L147.26001 36.850002C 147.6064 36.860302 147.94994 36.78472 148.26001 36.63C 148.59096 36.422318 148.86299 36.133064 149.05 35.79C 149.3638 35.229378 149.63135 34.644108 149.85 34.04L149.85 34.04L153.97 23.25L154.97 23.25L159.32 34.37C 159.64001 35.149998 159.87001 35.69 160.01001 35.96C 160.14874 36.22671 160.36026 36.448627 160.62001 36.6C 160.96059 36.7706 161.33963 36.849854 161.72002 36.829998L161.72002 36.829998L161.69 37.84zM155.41 32.84L153.41 27.84L151.54001 32.84z" stroke="none" fill="#FFFFFF" fill-rule="nonzero" />
    <path d="M192.83 37.84L185.67 37.84L185.67 36.84C 186.13063 36.866257 186.59207 36.805183 187.03 36.66C 187.28189 36.56296 187.48386 36.368206 187.59 36.12C 187.69394 35.79738 187.73799 35.45847 187.72 35.12L187.72 35.12L187.72 26.119999L182.33 37.73L181.69 37.73L176.23 26.119999L176.23 34.629997C 176.20946 34.963013 176.20946 35.29698 176.23 35.629997C 176.25383 35.85118 176.33673 36.061874 176.47 36.239998C 176.63203 36.426144 176.84923 36.555756 177.09 36.609997C 177.47319 36.700226 177.86644 36.740562 178.26 36.729996L178.26 36.729996L178.26 37.729996L173 37.729996L173 36.729996C 173.39415 36.741405 173.78796 36.697647 174.17 36.599995C 174.40927 36.543087 174.62344 36.40967 174.78 36.219994C 174.91057 36.041286 174.99008 35.83042 175.01 35.609993C 175.02873 35.27693 175.02873 34.943054 175.01 34.609993L175.01 34.609993L175.01 26.63C 175.02045 26.194407 174.98694 25.75887 174.90999 25.33C 174.84322 25.0557 174.65027 24.829351 174.38998 24.72C 173.92929 24.552702 173.43929 24.481243 172.94998 24.51L172.94998 24.51L172.94998 23.51L178.15999 23.51L183 33.63L187.75 23.550001L192.86 23.550001L192.86 24.550001C 192.26637 24.474907 191.66516 24.609299 191.16 24.93C 190.8708 25.29831 190.7347 25.763916 190.78 26.23L190.78 26.23L190.78 35.23C 190.77106 35.548363 190.81499 35.866005 190.91 36.17C 191.0185 36.42599 191.22864 36.625267 191.49 36.719997C 191.93066 36.868877 192.39545 36.93334 192.86 36.909996L192.86 36.909996L192.83 37.84z" stroke="none" fill="#FFFFFF" fill-rule="nonzero" />
    <path d="M78.4 42.78C 78.205635 42.76622 78.01068 42.797 77.83 42.87C 77.72453 42.92076 77.64744 43.016212 77.62 43.129997C 77.602425 43.302887 77.602425 43.47711 77.62 43.649998L77.62 43.649998L77.62 45.82C 77.63755 46.119743 77.63755 46.420258 77.62 46.72C 77.58748 46.935818 77.512726 47.143105 77.4 47.33C 77.20364 47.70642 76.876434 47.998062 76.48 48.15C 76.11666 48.292454 75.73026 48.36702 75.340004 48.370003C 75.059845 48.367878 74.78104 48.330925 74.51 48.260002C 74.22862 48.18931 73.96142 48.07093 73.72 47.910004C 73.47801 47.75225 73.28424 47.530792 73.16 47.270004C 73.09158 47.12927 73.03796 46.98181 73 46.830006C 72.962425 46.692753 72.93897 46.55202 72.93 46.410007C 72.93 46.29001 72.93 46.120007 72.93 45.910007L72.93 45.910007L72.93 43.48C 72.94961 43.287548 72.89606 43.094765 72.78 42.94C 72.574524 42.801846 72.325096 42.744835 72.08 42.78L72.08 42.78L72.08 42.379997L75.08 42.379997L75.08 42.78C 74.88671 42.77177 74.69355 42.79888 74.51 42.86C 74.40306 42.897068 74.3162 42.97669 74.270004 43.08C 74.22568 43.208538 74.20534 43.34412 74.21001 43.480003L74.21001 43.480003L74.21001 45.930004C 74.19564 46.149765 74.19564 46.37024 74.21001 46.590004C 74.23059 46.76074 74.27086 46.92852 74.33001 47.090004C 74.431274 47.326122 74.60683 47.522743 74.83001 47.650005C 75.066696 47.78816 75.33595 47.860653 75.61001 47.860004C 75.90766 47.8619 76.20065 47.786068 76.46001 47.640003C 76.70188 47.512077 76.895096 47.30832 77.01001 47.06C 77.09002 46.87504 77.14387 46.67983 77.17001 46.48C 77.182755 46.243496 77.182755 46.006504 77.17001 45.77L77.17001 45.77L77.17001 43.66C 77.1779 43.52011 77.1779 43.37989 77.17001 43.24C 77.13618 43.146053 77.07741 43.063087 77 43C 76.934616 42.917995 76.84265 42.861404 76.74 42.84C 76.57395 42.8197 76.406044 42.8197 76.24 42.84L76.24 42.84L76.24 42.44L78.4 42.44L78.4 42.78z" stroke="none" fill="#FFFFFF" fill-rule="nonzero" />
    <path d="M92.29 42.78C 92.08598 42.76937 91.88192 42.79998 91.69 42.87C 91.57916 42.913807 91.49444 43.005898 91.46 43.12C 91.43977 43.29943 91.43977 43.480568 91.46 43.66L91.46 43.66L91.46 48.33L91 48.33L87.14 43.75L87.14 47C 87.11861 47.179363 87.11861 47.360638 87.14 47.54C 87.171745 47.657887 87.25687 47.75411 87.37 47.8C 87.5649 47.87192 87.77263 47.90257 87.98 47.89L87.98 47.89L87.98 48.29L85.85 48.29L85.85 47.89C 86.04428 47.901752 86.238785 47.87104 86.42 47.8C 86.5293 47.75162 86.61038 47.6558 86.64 47.54C 86.65942 47.360523 86.65942 47.179478 86.64 47L86.64 47L86.64 44C 86.64 43.76 86.64 43.57 86.64 43.45C 86.63036 43.33863 86.59983 43.230072 86.55 43.13C 86.49507 43.033302 86.41111 42.956337 86.310005 42.91C 86.165344 42.842064 86.00941 42.801384 85.850006 42.79L85.850006 42.79L85.850006 42.39L87.57001 42.39L90.93001 46.39L90.93001 43.66C 90.94867 43.493855 90.94867 43.326145 90.93001 43.16C 90.89576 43.041103 90.81195 42.94272 90.700005 42.89C 90.52023 42.813248 90.32517 42.779026 90.130005 42.79L90.130005 42.79L90.130005 42.39L92.33 42.39L92.29 42.78z" stroke="none" fill="#FFFFFF" fill-rule="nonzero" />
    <path d="M102.71 48.27L99.71 48.27L99.71 47.87C 99.89988 47.875767 100.08933 47.8487 100.27 47.789997C 100.37941 47.758743 100.47033 47.68237 100.52 47.579998C 100.56466 47.448093 100.584984 47.309174 100.579994 47.17L100.579994 47.17L100.579994 43.469997C 100.59992 43.275944 100.54242 43.08187 100.41999 42.929996C 100.20896 42.796127 99.95804 42.73958 99.70999 42.769997L99.70999 42.769997L99.70999 42.369995L102.70999 42.369995L102.70999 42.769997C 102.51738 42.76044 102.32456 42.784122 102.13999 42.839996C 102.03118 42.872364 101.94066 42.948402 101.88999 43.049995C 101.84489 43.181797 101.82455 43.3208 101.829994 43.459995L101.829994 43.459995L101.829994 47.159996C 101.82487 47.295902 101.845215 47.431572 101.88999 47.559998C 101.93518 47.664043 102.022415 47.744015 102.12999 47.78C 102.31619 47.844505 102.51328 47.87169 102.70999 47.86L102.70999 47.86L102.71 48.27z" stroke="none" fill="#FFFFFF" fill-rule="nonzero" />
    <path d="M116.64 42.78C 116.51769 42.782135 116.39638 42.802353 116.28 42.84C 116.173615 42.86629 116.07666 42.921696 116 43C 115.922035 43.09199 115.85493 43.192654 115.8 43.3C 115.73 43.43 115.64 43.63 115.520004 43.899998L115.520004 43.899998L113.600006 48.379997L113.200005 48.379997L111.200005 43.679996C 111.11661 43.470615 111.01974 43.266857 110.91 43.069996C 110.84474 42.964417 110.746254 42.883514 110.630005 42.839996C 110.46218 42.786087 110.28612 42.762386 110.11001 42.769997L110.11001 42.769997L110.11001 42.369995L113.11001 42.369995L113.11001 42.769997C 112.911446 42.772785 112.713715 42.796246 112.52001 42.839996C 112.41133 42.877197 112.344246 42.986202 112.36001 43.099995C 112.36548 43.24636 112.40303 43.38974 112.47001 43.519993L112.47001 43.519993L113.82001 46.669994L115.07001 43.729996C 115.15194 43.56326 115.20599 43.38422 115.23001 43.199997C 115.23001 43.01 115.16001 42.899998 115.030014 42.85C 114.83844 42.794044 114.63957 42.76708 114.44002 42.769997L114.44002 42.769997L114.44002 42.369995L116.62002 42.369995L116.64 42.78z" stroke="none" fill="#FFFFFF" fill-rule="nonzero" />
    <path d="M129.39 46.34L129.34 48.28L124.09 48.28L124.09 47.879997C 124.33475 47.90806 124.58173 47.851604 124.78999 47.719997C 124.90516 47.564796 124.95862 47.372364 124.939995 47.179996L124.939995 47.179996L124.939995 43.479996C 124.959915 43.350758 124.959915 43.219234 124.939995 43.089996C 124.89589 42.98518 124.80824 42.90483 124.7 42.869995C 124.516655 42.807972 124.32332 42.780838 124.13 42.789993L124.13 42.789993L124.13 42.38999L129 42.38999L129.07 43.91999L128.67001 43.91999C 128.61644 43.65841 128.51105 43.410194 128.36002 43.18999C 128.26115 43.057247 128.1201 42.96204 127.960014 42.91999C 127.74253 42.87903 127.52118 42.862263 127.30001 42.86999L127.30001 42.86999L126.19001 42.86999L126.19001 44.94999L126.79001 44.94999C 126.945015 44.95754 127.10024 44.940666 127.25001 44.89999C 127.348495 44.86588 127.425896 44.78848 127.46001 44.68999C 127.50955 44.534653 127.5365 44.372997 127.54001 44.20999L127.54001 44.20999L128 44.20999L128 46.20999L127.6 46.20999C 127.598564 46.045937 127.56809 45.883427 127.51 45.729992C 127.47004 45.63394 127.38941 45.56065 127.29 45.52999C 127.14046 45.488106 126.98504 45.471214 126.83 45.479992L126.83 45.479992L126.22 45.479992L126.22 46.859993C 126.22 47.089993 126.22 47.259995 126.22 47.36999C 126.22968 47.467064 126.264114 47.56003 126.32 47.63999C 126.38284 47.720066 126.47097 47.776466 126.57 47.79999C 126.73272 47.820076 126.897285 47.820076 127.06 47.79999L127.06 47.79999L127.53 47.79999C 127.72287 47.800945 127.914856 47.774 128.1 47.71999C 128.31262 47.647694 128.49773 47.511482 128.63 47.32999C 128.83731 47.03404 128.96475 46.6896 129 46.32999L129 46.32999L129.39 46.34z" stroke="none" fill="#FFFFFF" fill-rule="nonzero" />
    <path d="M143.42 48.27L141.84999 48.27C 141.76941 48.1826 141.69585 48.088978 141.62999 47.99C 141.54 47.870003 141.45 47.730003 141.34999 47.56L141.34999 47.56L141.09999 47.15L140.7 46.49C 140.57758 46.277443 140.44058 46.073624 140.29 45.88C 140.21123 45.779232 140.10278 45.705772 139.98 45.670002C 139.78062 45.647625 139.57936 45.647625 139.37999 45.670002L139.37999 45.670002L139.15999 45.670002L139.15999 47.210003C 139.1531 47.34195 139.17004 47.47406 139.20999 47.600002C 139.25293 47.70563 139.34103 47.786392 139.45 47.820004C 139.62996 47.88171 139.81996 47.908855 140.01 47.900005L140.01 47.900005L140.01 48.300007L137.01 48.300007L137.01 47.900005C 137.25508 47.935173 137.50452 47.878162 137.70999 47.740005C 137.8279 47.58615 137.88165 47.392624 137.85999 47.200005L137.85999 47.200005L137.85999 43.47C 137.87862 43.277634 137.82516 43.0852 137.70999 42.93C 137.50452 42.791843 137.25508 42.734833 137.01 42.77L137.01 42.77L137.01 42.36L138.37 42.36L139.54999 42.36L140.37 42.41C 140.57225 42.428055 140.77284 42.461487 140.97 42.51C 141.19049 42.56415 141.40015 42.655457 141.59 42.78C 141.78546 42.90856 141.94951 43.079445 142.06999 43.28C 142.19366 43.499435 142.25584 43.748177 142.24998 44C 142.2526 44.196533 142.21162 44.3912 142.12999 44.57C 142.03798 44.768772 141.89688 44.94084 141.71999 45.07C 141.49373 45.229736 141.23923 45.345108 140.96999 45.41C 141.17596 45.529934 141.35884 45.685715 141.50998 45.87C 141.64998 46.05 141.88998 46.39 142.20998 46.87C 142.34647 47.089314 142.49678 47.29974 142.65997 47.5C 142.7505 47.616806 142.86252 47.715237 142.98997 47.79C 143.11021 47.84416 143.23863 47.877953 143.36998 47.89L143.36998 47.89L143.42 48.27zM141 44C 141.03842 43.63454 140.87332 43.277447 140.57 43.07C 140.22116 42.90269 139.83655 42.823708 139.45001 42.84L139.45001 42.84L139.17001 42.84L139.17001 45.21L139.45001 45.21C 139.82765 45.22171 140.20325 45.15001 140.55002 45C 140.83 44.81 141 44.47 141 44z" stroke="none" fill="#FFFFFF" fill-rule="nonzero" />
    <path d="M155.26 46.58C 155.25465 46.778915 155.21404 46.975304 155.14 47.160004C 155.05696 47.374767 154.93866 47.574173 154.79 47.750004C 154.6232 47.93982 154.41891 48.093037 154.18999 48.200005C 153.93045 48.32186 153.6467 48.3834 153.35999 48.380005C 153.03876 48.375435 152.72202 48.303913 152.43 48.170006C 152.12405 48.033466 151.85625 47.82402 151.65 47.560005C 151.56467 47.75152 151.50418 47.95315 151.47 48.160004L151.47 48.160004L151.07 48.160004L151.07 46.160004L151.47 46.160004C 151.53976 46.443466 151.64037 46.718437 151.77 46.980003C 151.89738 47.23827 152.08208 47.464016 152.31 47.640003C 152.55289 47.827988 152.85297 47.926838 153.16 47.920002C 153.41885 47.93507 153.67342 47.84902 153.87001 47.68C 154.148 47.425625 154.22533 47.0186 154.06001 46.68C 154.0002 46.571102 153.91847 46.475765 153.82 46.4C 153.68428 46.29843 153.54047 46.208126 153.39001 46.13L153.39001 46.13L152.77002 45.84C 152.4601 45.70035 152.16525 45.529472 151.89001 45.33C 151.69276 45.190136 151.5175 45.021614 151.37001 44.83C 151.26746 44.689526 151.18655 44.53447 151.13 44.370003C 151.08475 44.227673 151.06116 44.07935 151.06 43.930004C 151.06123 43.6562 151.1336 43.387417 151.27 43.150005C 151.42102 42.88832 151.6383 42.67103 151.90001 42.520004C 152.18878 42.35466 152.51735 42.27165 152.85 42.280003C 153.12378 42.277378 153.39436 42.33903 153.64 42.460003C 153.88887 42.579987 154.11018 42.75023 154.29 42.960003C 154.35434 42.79536 154.40128 42.624428 154.43 42.450005L154.43 42.450005L154.84 42.450005L154.84 44.1L154.43 44.1C 154.14334 43.2 153.64001 42.75 152.92 42.75C 152.69118 42.73912 152.46652 42.814003 152.29 42.96C 152.13345 43.0909 152.0451 43.286 152.04999 43.489998C 152.0461 43.65288 152.09914 43.812023 152.19998 43.94C 152.30785 44.071106 152.44034 44.17982 152.58998 44.26C 152.74998 44.35 153.00998 44.48 153.36998 44.649998C 153.71274 44.81197 154.04655 44.99223 154.36998 45.19C 154.61053 45.339474 154.82085 45.53283 154.98997 45.76C 155.166 45.99709 155.26071 46.28471 155.26 46.58z" stroke="none" fill="#FFFFFF" fill-rule="nonzero" />
    <path d="M165.92 48.27L162.92 48.27L162.92 47.87C 163.11322 47.876934 163.30617 47.849857 163.49 47.789997C 163.59941 47.758743 163.69032 47.68237 163.74 47.579998C 163.78511 47.4482 163.80545 47.309196 163.8 47.17L163.8 47.17L163.8 43.469997C 163.81993 43.275944 163.76242 43.08187 163.64 42.929996C 163.42621 42.793827 163.17134 42.737186 162.92 42.769997L162.92 42.769997L162.92 42.369995L165.92 42.369995L165.92 42.769997C 165.73071 42.761585 165.54138 42.785255 165.36 42.839996C 165.25117 42.872364 165.16066 42.948402 165.11 43.049995C 165.06715 43.18233 165.04686 43.320934 165.05 43.459995L165.05 43.459995L165.05 47.159996C 165.046 47.295837 165.06633 47.431305 165.11 47.559998C 165.15622 47.663315 165.24307 47.742935 165.35 47.78C 165.53311 47.842968 165.72664 47.87013 165.92001 47.86L165.92001 47.86L165.92 48.27z" stroke="none" fill="#FFFFFF" fill-rule="nonzero" />
    <path d="M179.28 44.06L178.87 44.06C 178.85901 43.774174 178.77649 43.495674 178.62999 43.25C 178.5377 43.10026 178.39633 42.987167 178.23 42.93C 178.07048 42.886124 177.90538 42.86591 177.73999 42.87L177.73999 42.87L177 42.87L177 47.18C 176.99455 47.315178 177.01144 47.450325 177.05 47.58C 177.09412 47.68482 177.18176 47.765167 177.29001 47.800003C 177.46985 47.862186 177.65994 47.889343 177.85 47.880005L177.85 47.880005L177.85 48.280006L174.85 48.280006L174.85 47.880005C 175.09511 47.91517 175.34454 47.85816 175.55 47.720005C 175.67242 47.56813 175.72993 47.374058 175.71 47.180004L175.71 47.180004L175.71 42.86L175.09001 42.86C 174.88507 42.857372 174.68048 42.877495 174.48001 42.920002C 174.30258 42.97091 174.14973 43.084656 174.05002 43.24C 173.90561 43.48504 173.83286 43.765675 173.84001 44.050003L173.84001 44.050003L173.43001 44.050003L173.43001 42.39L179.25002 42.39L179.28 44.06z" stroke="none" fill="#FFFFFF" fill-rule="nonzero" />
    <path d="M192.83 42.78C 192.69044 42.788303 192.55418 42.825775 192.43001 42.89C 192.30756 42.968136 192.20212 43.07017 192.12001 43.19C 192.01001 43.329998 191.85 43.55 191.65001 43.87L191.65001 43.87L190.41 45.789997L190.41 47.179996C 190.4041 47.30862 190.42102 47.43728 190.46 47.559998C 190.5008 47.66345 190.58485 47.743847 190.69 47.78C 190.87138 47.850426 191.06575 47.881115 191.26001 47.87L191.26001 47.87L191.26001 48.27L188.26001 48.27L188.26001 47.87C 188.44992 47.876175 188.63943 47.8491 188.82 47.789997C 188.92941 47.758743 189.02032 47.68237 189.07 47.579998C 189.11511 47.4482 189.13545 47.309196 189.13 47.17L189.13 47.17L189.13 45.86L187.65001 43.4L187.65001 43.34C 187.56595 43.181496 187.45023 43.041943 187.31001 42.93C 187.17497 42.856785 187.0236 42.818943 186.87001 42.82L186.87001 42.82L186.87001 42.42L189.63 42.42L189.63 42.82L189.3 42.82C 189.22845 42.82586 189.1596 42.84996 189.1 42.89C 189.05437 42.913242 189.01881 42.952362 189 43C 189.00166 43.069546 189.01874 43.137856 189.05 43.2C 189.12224 43.350765 189.20236 43.49764 189.29001 43.64L189.29001 43.64L190.21 45.19L191.09001 43.809998C 191.23532 43.615864 191.33139 43.389397 191.37001 43.149998C 191.37001 42.969997 191.31001 42.859997 191.19002 42.809998C 191.03214 42.757744 190.8662 42.734043 190.70001 42.739998L190.70001 42.739998L190.70001 42.339996L192.84001 42.339996L192.83 42.78z" stroke="none" fill="#FFFFFF" fill-rule="nonzero" />
    <path d="M172.88 34.25L172.29001 34.25L172.24 34.33C 172.04295 34.70484 171.66292 34.948063 171.24 34.97C 170.91754 34.96684 170.60365 34.865696 170.34001 34.68C 169.87695 34.289345 169.47574 33.83081 169.15001 33.32C 169.43372 32.873627 169.67477 32.401543 169.87001 31.91C 170.07594 31.312271 170.3989 30.761553 170.82 30.289999C 171.10289 30.022655 171.44585 29.827171 171.82 29.72L171.82 29.72L171.89001 29.72L172.02002 29.72L172.02002 28.869999L168.02002 28.869999L168.02002 29.749998L168.18002 29.749998L168.26003 29.749998C 169.17003 29.859999 169.26003 30.239998 169.26003 30.559998C 169.23502 30.905258 169.15042 31.243584 169.01003 31.559998C 168.87479 31.892235 168.70732 32.210426 168.51003 32.51L168.51003 32.51L166.20003 29.309998C 167.66003 28.519997 168.41003 27.669998 168.41003 26.799997C 168.41728 26.185783 168.10732 25.611237 167.59003 25.279997C 167.08003 24.923977 166.47198 24.735271 165.85002 24.739996C 165.16368 24.721601 164.50066 24.98971 164.02002 25.479996C 163.55891 25.92195 163.2957 26.531311 163.29002 27.169996C 163.34436 28.010637 163.6433 28.817053 164.15002 29.489996C 163.41177 29.950905 162.73904 30.509266 162.15002 31.149996C 161.73076 31.685358 161.51149 32.350258 161.53003 33.029995C 161.52025 33.6391 161.69072 34.2375 162.02003 34.749996C 162.65663 35.714832 163.73412 36.29675 164.89003 36.299995C 166.05246 36.237293 167.13766 35.698307 167.89003 34.809994C 168.54453 35.710873 169.57721 36.260406 170.69003 36.299995C 171.21078 36.310158 171.72038 36.148495 172.14003 35.839996C 172.55453 35.54211 172.8489 35.105865 172.97003 34.609997L172.97003 34.609997L172.97003 34.499996L173.03003 34.269997L172.88 34.25zM165.66 28.5C 165.23903 27.989967 164.96582 27.374357 164.87001 26.72C 164.85757 26.430351 164.95795 26.147167 165.15001 25.929998C 165.34883 25.730923 165.61865 25.619064 165.90001 25.619064C 166.18137 25.619064 166.45119 25.730923 166.65001 25.929998C 166.85318 26.176826 166.95663 26.490744 166.94 26.809998C 167 27.4 166.51 28 165.67 28.5zM164.72 30.25C 165.46 31.25 166.35 32.51 167.36 34.04C 166.92906 34.56436 166.29773 34.88365 165.62 34.920002C 164.98904 34.90284 164.39717 34.610554 164 34.120003C 163.54478 33.664894 163.28015 33.053387 163.26 32.410004C 163.27644 31.976925 163.42278 31.55881 163.68 31.210003C 163.96571 30.8261 164.32208 30.500267 164.73 30.25z" stroke="none" fill="#FFFFFF" fill-rule="nonzero" />
    <path d="M197.45 45.52C 198.23141 45.53653 198.85257 46.18144 198.83978 46.96293C 198.82698 47.744423 198.18504 48.36865 197.4035 48.359585C 196.62196 48.350525 195.99467 47.71158 196 46.93C 195.99455 46.554398 196.14136 46.19259 196.40697 45.92697C 196.67259 45.661354 197.0344 45.514553 197.41 45.52L197.41 45.52L197.45 45.52zM197.45 45.74C 196.95992 45.71547 196.50427 45.991776 196.29948 46.437683C 196.0947 46.88359 196.18202 47.409256 196.51999 47.765003C 196.85794 48.12075 197.37845 48.234898 197.83426 48.05323C 198.29007 47.871567 198.58937 47.43069 198.59 46.940002C 198.60075 46.62892 198.48607 46.32656 198.27168 46.10089C 198.0573 45.875225 197.76122 45.745182 197.45 45.74zM197.19 47.74L196.94 47.74L196.94 46.18C 197.08981 46.169235 197.2402 46.169235 197.39 46.18C 197.56174 46.16949 197.73259 46.211334 197.88 46.3C 197.997 46.40009 198.04805 46.557278 198.01219 46.707C 197.97635 46.856724 197.85963 46.973743 197.71 47.01C 197.85 47.01 197.94 47.16 197.97 47.39C 197.98305 47.524376 198.01678 47.65593 198.07 47.78L198.07 47.78L197.81001 47.78C 197.7496 47.654358 197.71234 47.51886 197.70001 47.379997C 197.69836 47.295334 197.65979 47.21562 197.59442 47.16179C 197.52905 47.107956 197.44342 47.085384 197.36002 47.1L197.36002 47.1L197.18002 47.1zM197.19 46.870003L197.37 46.870003C 197.58 46.870003 197.75 46.79 197.75 46.600002C 197.75 46.410004 197.65 46.33 197.37 46.33L197.37 46.33L197.19 46.33z" stroke="none" fill="#FFFFFF" fill-rule="nonzero" />
</g>
</svg>